<svg width="1920" height="1598" viewBox="0 0 1920 1598" fill="none" xmlns="http://www.w3.org/2000/svg">
<g clip-path="url(#clip0_2210_4)">
<rect width="1920" height="1598" fill="#1B1B1B"/>
<path d="M-85.1428 -38.019L624.204 491.981M157.216 -34.8953L625.379 400.846M324.463 -32.7396L626.709 297.693M438.632 -31.2681L445.541 -23.3278M-163.669 148.277L644.753 607.435M-166.974 404.656L621.571 696.283M-170.059 644.011L620.397 787.418M-172.86 861.332L619.312 871.542M-175.983 1103.69L592.907 977.377M-179.107 1346.05L616.757 1069.84M-182.308 1594.42L615.504 1166.98M-185.329 1828.76L614.278 1262.12M26.3141 1883.58L613.065 1356.26M210.587 1885.95L634.013 1440.67M338.776 1887.6L471.231 1742.46M632.4 1565.85L549.262 1656.96M582.387 1793.58L603.466 158.165L569.089 118.657M569.089 118.657C557.992 720.304 551.247 1394.88 549.262 1656.96M569.089 118.657L532.949 77.1239M549.262 1656.96L512.061 1697.72M532.949 77.1239L512.061 1697.72M532.949 77.1239L493.283 31.5385M512.061 1697.72L471.231 1742.46M493.283 31.5385L471.231 1742.46M493.283 31.5385L445.541 -23.3278M471.231 1742.46L470.01 1837.21M421.014 1879.65C420.271 1626.42 437.056 505.487 445.541 -23.3278M394.567 -31.8361L369.822 1888M314.741 1887.29L339.485 -32.546M271.385 -33.4238L246.64 1886.42M168.525 1885.41L193.269 -34.4306M97.1269 -35.6697C81.4803 307.894 74.1111 1387.38 72.3823 1884.17M-42.7881 1882.69L-18.0435 -37.1542" stroke="#6D6B6B" stroke-width="2"/>
<path d="M2073.36 1899.72L1351.52 1386.87M1830.99 1902.41L1352.53 1478M1663.74 1904.26L1353.67 1581.16M1549.57 1905.52L1542.47 1897.75M2147.4 1711.6L1328.21 1271.94M2144.56 1455.22L1349.26 1182.56M2141.91 1215.86L1348.25 1091.42M2139.51 998.531L1347.32 1007.3M2136.82 756.167L1371.18 900.861M2134.14 513.803L1345.12 809M2131.39 265.43L1344.05 711.854M2128.8 31.0783L1342.99 616.711M1915.9 -18.6502L1341.95 522.57M1731.63 -16.6108L1318.99 438.688M1603.43 -15.1921L1474.49 133.082M1317.6 313.5L1398.53 220.432M1362.15 84.6359L1380.25 1720.09L1415.56 1758.76M1415.56 1758.76C1412.24 1157.02 1402.83 482.484 1398.53 220.432M1415.56 1758.76L1452.68 1799.42M1398.53 220.432L1434.75 178.789M1452.68 1799.42L1434.75 178.789M1452.68 1799.42L1493.43 1844.04M1434.75 178.789L1474.49 133.082M1493.43 1844.04L1474.49 133.082M1493.43 1844.04L1542.47 1897.75M1474.49 133.082L1473.45 38.331M1521.41 -5.26974C1528.22 247.866 1538.29 1368.88 1542.47 1897.75M1593.63 1905.03L1572.39 -14.8485M1627.47 -15.4581L1648.72 1904.42M1716.82 1903.67L1695.57 -16.2118M1773.69 -17.0763L1794.94 1902.81M1891.08 1901.74C1898.49 1557.9 1880.01 478.554 1869.83 -18.1404M1985.01 -19.415L2006.25 1900.47" stroke="#6D6B6B" stroke-width="2"/>
<rect x="835.216" y="-38.5773" width="1963.97" height="849" transform="rotate(90.096 835.216 -38.5773)" fill="url(#paint0_linear_2210_4)"/>
<rect x="2158.22" y="-11.5773" width="1920" height="849" transform="rotate(90.096 2158.22 -11.5773)" fill="url(#paint1_linear_2210_4)"/>
</g>
<defs>
<linearGradient id="paint0_linear_2210_4" x1="1817.2" y1="57.4227" x2="1817.2" y2="810.423" gradientUnits="userSpaceOnUse">
<stop offset="0.0319046" stop-color="#1B1B1B"/>
<stop offset="0.531943" stop-color="#1B1B1B" stop-opacity="0"/>
<stop offset="1" stop-color="#1B1B1B"/>
</linearGradient>
<linearGradient id="paint1_linear_2210_4" x1="3118.22" y1="84.4227" x2="3118.22" y2="837.423" gradientUnits="userSpaceOnUse">
<stop offset="0.0319046" stop-color="#1B1B1B"/>
<stop offset="0.531943" stop-color="#1B1B1B" stop-opacity="0"/>
<stop offset="1" stop-color="#1B1B1B"/>
</linearGradient>
<clipPath id="clip0_2210_4">
<rect width="1920" height="1598" fill="white"/>
</clipPath>
</defs>
</svg>
