<svg width="360" height="720" viewBox="0 0 360 720" fill="none" xmlns="http://www.w3.org/2000/svg">
<g clip-path="url(#clip0_2219_56)">
<rect width="360" height="720" fill="#1B1B1B"/>
<path d="M-31.1296 680.122L-11.2782 641.384L6.25347 607.172H-35.0459L-17.8119 580.205L-2.78739 556.695H-39.107L-24.8328 537.68L-11.6906 520.173C-22.1299 520.13 -31.9721 520.088 -41.0905 520.047L-27.8962 503.325L-16.9338 489.43L-6.94575 476.771L2.55503 464.73H29.9285H55.9849H79.2478H105.383H131.21H154.518H176.005H201.828H226.442H251.235H275.448H299.529H326.731H357.703L367.244 476.771L377.275 489.43L388.285 503.325L401.778 520.354L415.507 537.68H382.201L396.66 556.695L414.536 580.205H374.571L392.096 607.172L413.752 640.497C399.334 640.682 383.239 640.872 365.921 641.059L385.965 680.122H335.082H281.317H228.774H176.005H128.999H77.2946H21.7514H-31.1296Z" fill="url(#paint0_linear_2219_56)"/>
<path d="M-43 703.287L83.6771 456.087M-43 619.619L61.5086 456.087M-43 561.881L36.4168 456.087M-43 522.468L-41.0905 520.047M2.55503 729.562L111.692 448.48M64.9191 729.562L133.373 456.087M123.142 729.562L155.542 456.087M176.005 729.562V456.087M234.959 729.562L201.828 464.73M293.912 729.562L224.24 456.087M354.328 729.562L247.87 456.087M411.332 729.562L271.013 456.087M424 656.267L293.912 456.087M424 592.652L314.376 448.48M424 548.398L388.285 503.325M344.827 448.48L367.244 476.771M400.37 464.73H2.55503L-6.94575 476.771M-6.94575 476.771C139.415 477.925 303.498 477.252 367.244 476.771M-6.94575 476.771L-16.9338 489.43M367.244 476.771L377.275 489.43M-16.9338 489.43H377.275M-16.9338 489.43L-27.8962 503.325M377.275 489.43L388.285 503.325M-27.8962 503.325H388.285M-27.8962 503.325L-41.0905 520.047M388.285 503.325H411.332M421.808 520.047C360.223 521.43 87.5486 520.624 -41.0905 520.047M-43 537.68H424M424 556.695H-43M-43 580.205H424M424 607.172H-43M-43 640.363C40.6069 644.235 303.17 641.976 424 640.363M424 680.122H-43" stroke="#6D6B6B"/>
<rect x="2" y="413" width="360" height="325" fill="url(#paint1_linear_2219_56)"/>
<path d="M393.416 50.0786L373.378 88.7204L355.681 122.847L396.98 123.047L379.615 149.93L364.477 173.367L400.797 173.543L386.43 192.489L373.204 209.933C383.643 210.025 393.485 210.115 402.603 210.2L389.328 226.859L378.298 240.7L368.249 253.31L358.69 265.306L331.317 265.173L305.261 265.047L281.998 264.935L255.863 264.808L230.037 264.683L206.729 264.571L185.242 264.467L159.42 264.342L134.806 264.223L110.013 264.103L85.8004 263.986L61.7194 263.869L34.5176 263.737L3.54658 263.588L-5.93662 251.5L-15.9062 238.793L-26.8483 224.845L-40.2594 207.751L-53.9045 190.359L-20.5983 190.52L-34.965 171.435L-52.7274 147.839L-12.763 148.032L-30.1572 120.98L-51.6517 87.5515C-37.2333 87.4366 -21.1375 87.324 -3.81895 87.2212L-23.6732 48.0609L27.2092 48.307L80.9737 48.5671L133.516 48.8213L186.284 49.0766L233.289 49.304L284.993 49.5541L340.536 49.8228L393.416 50.0786Z" fill="url(#paint2_linear_2219_56)"/>
<path d="M405.399 26.9721L277.527 273.557M404.994 110.639L299.695 273.664M404.715 168.376L324.787 273.785M404.524 207.789L402.603 210.2M359.971 0.476216L249.476 281.027M297.608 0.174525L227.831 273.316M239.386 -0.107133L205.663 273.209M186.523 -0.362864L185.2 273.11M127.57 -0.648057L159.42 264.342M68.6174 -0.93325L136.966 272.877M8.20283 -1.22551L113.336 272.762M-48.8012 -1.50128L90.1934 272.65M-61.8233 71.7323L67.2944 272.539M-62.1311 135.347L46.7946 280.047M-62.3452 179.6L-26.8483 224.845M16.3437 279.899L-5.93662 251.5M-39.12 263.381L358.69 265.306L368.249 253.31M368.249 253.31C221.896 251.449 57.8113 251.328 -5.93662 251.5M368.249 253.31L378.298 240.7M-5.93662 251.5L-15.9061 238.793M378.298 240.7L-15.9061 238.793M378.298 240.7L389.328 226.859M-15.9061 238.793L-26.8483 224.845M389.328 226.859L-26.8483 224.845M389.328 226.859L402.603 210.2M-26.8483 224.845L-49.8956 224.734M-60.2898 207.961C1.30069 206.876 273.968 209.001 402.603 210.2M404.598 192.577L-62.397 190.318M-62.305 171.303L404.69 173.562M404.803 150.052L-62.1913 147.793M-62.0608 120.826L404.934 123.085M405.094 89.895C321.507 85.6184 58.9366 86.607 -61.9003 87.6359M-61.7079 47.8769L405.287 50.136" stroke="#6D6B6B"/>
<rect x="358.995" y="317.038" width="360" height="325" transform="rotate(-179.723 358.995 317.038)" fill="url(#paint3_linear_2219_56)"/>
</g>
<defs>
<linearGradient id="paint0_linear_2219_56" x1="190.5" y1="448.48" x2="190.5" y2="729.562" gradientUnits="userSpaceOnUse">
<stop stop-color="#1B1B1B"/>
<stop offset="0.515625" stop-color="#1B1B1B" stop-opacity="0.48"/>
<stop offset="1" stop-color="#1B1B1B"/>
</linearGradient>
<linearGradient id="paint1_linear_2219_56" x1="182" y1="413" x2="182" y2="738" gradientUnits="userSpaceOnUse">
<stop stop-color="#1B1B1B"/>
<stop offset="0.515625" stop-color="#1B1B1B" stop-opacity="0.48"/>
<stop offset="1" stop-color="#1B1B1B"/>
</linearGradient>
<linearGradient id="paint2_linear_2219_56" x1="170.669" y1="280.646" x2="172.029" y2="-0.432995" gradientUnits="userSpaceOnUse">
<stop stop-color="#1B1B1B"/>
<stop offset="0.515625" stop-color="#1B1B1B" stop-opacity="0.48"/>
<stop offset="1" stop-color="#1B1B1B"/>
</linearGradient>
<linearGradient id="paint3_linear_2219_56" x1="538.995" y1="317.038" x2="538.995" y2="642.038" gradientUnits="userSpaceOnUse">
<stop stop-color="#1B1B1B"/>
<stop offset="0.515625" stop-color="#1B1B1B" stop-opacity="0.48"/>
<stop offset="1" stop-color="#1B1B1B"/>
</linearGradient>
<clipPath id="clip0_2219_56">
<rect width="360" height="720" fill="white"/>
</clipPath>
</defs>
</svg>
