<svg width="50" height="49" viewBox="0 0 50 49" fill="none" xmlns="http://www.w3.org/2000/svg">
<g id="Group">
<path id="Vector" d="M49.2504 24.2056C49.2504 37.5707 38.2262 48.4095 24.6268 48.4095C11.0275 48.4095 0 37.5707 0 24.2056C0 10.8388 11.0275 1.82152e-07 24.6268 1.82152e-07C38.2262 -0.00162239 49.2504 10.8372 49.2504 24.2056Z" fill="url(#paint0_linear_2330_70)"/>
<g id="Group_2">
<path id="Vector_2" d="M15.6761 20.8955C15.6761 20.8955 14.4891 20.4542 14.2893 20.7527C14.0863 21.0513 13.8865 22.1141 14.1094 22.9286C14.3389 23.7431 14.8936 24.7329 15.3311 25.0023C15.7669 25.2716 16.8234 25.2229 16.8234 25.2229C16.8234 25.2229 16.1565 21.9388 15.6761 20.8955Z" fill="#FA9884"/>
<path id="Vector_3" d="M33.7672 20.8955C33.7672 20.8955 34.9607 20.4542 35.1605 20.7527C35.3602 21.0513 35.5567 22.1141 35.3339 22.9286C35.1077 23.7431 34.5497 24.7329 34.1155 25.0023C33.6764 25.2716 32.6199 25.2229 32.6199 25.2229C32.6199 25.2229 33.2901 21.9388 33.7672 20.8955Z" fill="#FA9884"/>
</g>
<path id="Vector_4" d="M30.2973 35.2569C28.8661 34.1114 28.8049 33.1865 28.7174 32.213C28.6085 30.9701 29.2358 27.1944 29.2358 27.1944H24.8447H24.4023H20.0144C20.0144 27.1944 20.6434 30.9701 20.5311 32.213C20.4469 33.1865 20.3793 34.1114 18.948 35.2569L24.6252 44.0318L30.2973 35.2569Z" fill="#FFC2AB"/>
<path id="Vector_5" d="M28.7374 31.0772C28.8595 29.4741 29.2375 27.196 29.2375 27.196H24.8464H24.404H20.0161C20.0161 27.196 20.3711 29.3102 20.4998 30.8971C22.1061 32.2925 23.8279 33.2044 24.7243 33.2044C25.5778 33.2044 27.1939 32.3704 28.7374 31.0772Z" fill="#FA9884"/>
<path id="Vector_6" d="M24.6267 48.4095C31.1524 48.4095 37.0656 45.8978 41.4666 41.8284C41.4633 41.8235 41.46 41.8122 41.4534 41.8073C40.7964 41.4276 34.8304 37.9342 31.8672 36.2792C31.2134 35.9157 30.7001 35.575 30.2973 35.2569L24.6251 44.0318L18.9479 35.2569C18.5451 35.575 18.0383 35.9157 17.3846 36.2792C14.4214 37.9342 8.45376 41.426 7.79509 41.8073C7.79179 41.8122 7.78517 41.8235 7.77856 41.8284C12.1879 45.8978 18.1011 48.4095 24.6267 48.4095Z" fill="url(#paint1_linear_2330_70)"/>
<path id="Vector_7" d="M28.9402 33.5062L25.2424 40.3632L24.6267 44.0318L26.7133 40.8094L30.5152 41.9712C30.5152 41.9712 31.2563 36.0747 31.2959 35.9449C31.3306 35.8135 31.3702 35.5734 31.2959 35.4289C31.2151 35.291 29.3265 33.5062 29.3265 33.5062H28.9402Z" fill="white"/>
<path id="Vector_8" d="M20.3101 33.5062L24.0079 40.3632L24.6269 44.0318L22.5469 40.8094L18.7384 41.9712C18.7384 41.9712 17.9973 36.0747 17.9577 35.9449C17.9164 35.8135 17.8801 35.5734 17.9577 35.4289C18.0386 35.291 19.9271 33.5062 19.9271 33.5062H20.3101Z" fill="white"/>
<path id="Vector_9" d="M24.7227 6.26962C32.6928 6.26962 34.1802 13.4187 34.1505 16.2339C34.1208 19.0474 33.434 22.1725 32.3957 25.9677C31.3507 29.7596 26.4627 31.5964 24.7227 31.5964C22.9811 31.5964 18.0931 29.7596 17.053 25.9677C16.0081 22.1725 15.3214 19.0474 15.2933 16.2339C15.2669 13.4187 16.7493 6.26962 24.7227 6.26962Z" fill="#FFC2AB"/>
<path id="Vector_10" d="M36.7784 14.6016C36.582 14.4782 36.2139 13.8487 36.0521 13.1055C35.92 12.4598 35.4263 11.2071 34.662 10.3196C35.2167 9.85714 35.4511 9.09615 35.362 8.68564C35.3042 8.43901 35.1193 8.28 34.8882 8.28C34.8816 8.28 34.8618 8.27999 34.8536 8.28162C34.5383 8.28162 32.8908 7.91655 31.7616 6.89108C30.7299 5.95323 28.45 4.35823 24.739 4.1765C21.4919 4.01749 19.2831 4.99266 17.9806 7.16691C16.5263 7.05658 15.4912 7.53686 14.8755 8.60452C14.1144 9.92529 13.5597 11.9097 13.2923 12.9806C13.0529 13.9736 12.2193 14.7395 11.97 14.9472C11.8248 15.0737 11.7834 15.2749 11.861 15.4794C11.9865 15.8136 12.5065 16.2777 13.1767 16.3345C13.2312 16.8943 13.3831 18.1225 13.677 19.2064C14.1062 20.756 15.676 21.4066 15.747 21.4358C15.8411 21.4764 15.9501 21.4683 16.0409 21.4147C16.1284 21.3612 16.1928 21.272 16.1994 21.1697C16.1994 21.1616 16.3001 20.2286 16.5824 19.3135C16.802 19.0344 17.0693 18.6499 17.2856 18.0901C17.3087 18.1469 17.312 18.1599 17.3153 18.168C17.3731 18.2783 17.4985 18.3513 17.6256 18.3513C17.9773 18.3513 18.3454 17.6812 18.593 17.1198C18.8126 16.6249 18.8984 16.057 18.976 15.5118C19.0305 15.124 19.0916 14.7184 19.2022 14.363C19.3211 13.959 19.4994 13.7173 19.6727 13.7173C19.7437 13.7173 19.9088 13.753 20.1762 14.0077C20.2472 14.0726 20.3446 14.1051 20.4403 14.0969C20.5377 14.0856 20.6236 14.0353 20.6797 13.9541C21.0759 13.3814 21.4853 13.099 21.9277 13.099C22.6144 13.099 23.4762 13.7335 24.6433 15.0867C25.8814 16.5178 27.7005 17.1571 28.1842 17.1571C28.4649 17.1571 28.5557 16.9884 28.5837 16.9154C28.6547 16.719 28.5706 16.5065 28.3742 16.0927C29.8995 17.0257 31.7022 17.4719 31.8012 17.4719C31.9168 17.4719 32.0306 17.4151 32.095 17.3161C32.1594 17.222 32.1891 17.0581 32.1825 16.8699C32.2023 16.8829 32.2172 16.8991 32.237 16.9105C32.4532 18.6158 33.2341 21.1194 33.2654 21.2298C33.3067 21.3677 33.4355 21.4586 33.5775 21.4586C33.6039 21.4586 33.622 21.4586 33.6484 21.4504C33.6748 21.4456 34.2295 21.332 34.7099 20.9393C34.7363 20.9182 34.7578 20.8907 34.7776 20.8663C35.3966 19.922 36.0455 17.3697 35.8028 15.8444C36.3063 15.7617 36.8709 15.4631 36.9765 15.1078C37.031 14.9115 36.9567 14.7168 36.7784 14.6016Z" fill="#242736"/>
</g>
<defs>
<linearGradient id="paint0_linear_2330_70" x1="21.3465" y1="7.09179" x2="31.3072" y2="60.9057" gradientUnits="userSpaceOnUse">
<stop stop-color="#9D62F5"/>
<stop offset="1" stop-color="#6049CD"/>
</linearGradient>
<linearGradient id="paint1_linear_2330_70" x1="7.78005" y1="41.8334" x2="41.4668" y2="41.8334" gradientUnits="userSpaceOnUse">
<stop stop-color="#FF87A7"/>
<stop offset="1" stop-color="#FF4778"/>
</linearGradient>
</defs>
</svg>
